<?xml version="1.0" encoding="UTF-8"?>
<!DOCTYPE svg PUBLIC "-//W3C//DTD SVG 1.1//EN" "http://www.w3.org/Graphics/SVG/1.1/DTD/svg11.dtd">
<svg xmlns="http://www.w3.org/2000/svg" version="1.1" width="764px" height="347px" style="shape-rendering:geometricPrecision; text-rendering:geometricPrecision; image-rendering:optimizeQuality; fill-rule:evenodd; clip-rule:evenodd" xmlns:xlink="http://www.w3.org/1999/xlink">
<g><path style="opacity:0.936" fill="#c1211f" d="M 181.5,49.5 C 204.287,48.313 223.12,56.313 238,73.5C 253.435,93.0621 261.602,115.395 262.5,140.5C 257.902,139.467 253.402,138.134 249,136.5C 246.092,117.427 239.092,100.094 228,84.5C 197.497,55.3344 170.497,58.3344 147,93.5C 120.733,145.297 127.4,192.297 167,234.5C 174.405,241.45 181.905,248.283 189.5,255C 183.966,258.698 178.299,262.198 172.5,265.5C 148.591,247.377 131.757,224.044 122,195.5C 112.14,158.905 115.474,123.572 132,89.5C 143.17,69.3607 159.67,56.0274 181.5,49.5 Z"/></g>
<g><path style="opacity:0.761" fill="#ffffff" d="M 690.5,116.5 C 692.288,116.215 693.955,116.548 695.5,117.5C 697.769,121.417 700.603,122.084 704,119.5C 704.483,118.552 704.649,117.552 704.5,116.5C 706.167,116.5 707.833,116.5 709.5,116.5C 710.041,122.962 707.041,126.295 700.5,126.5C 694.156,126.156 690.822,122.822 690.5,116.5 Z"/></g>
<g><path style="opacity:0.876" fill="#ffffff" d="M 374.5,118.5 C 378.351,117.191 382.351,117.191 386.5,118.5C 388.802,122.633 391.302,126.633 394,130.5C 396.25,126.332 398.75,122.332 401.5,118.5C 405.167,117.167 408.833,117.167 412.5,118.5C 408.367,125.267 404.367,132.101 400.5,139C 404.911,146.486 409.577,153.819 414.5,161C 410.5,161.667 406.5,161.667 402.5,161C 399.792,156.416 396.958,151.916 394,147.5C 390.833,152 387.667,156.5 384.5,161C 380.789,161.825 377.122,161.659 373.5,160.5C 378.167,153.167 382.833,145.833 387.5,138.5C 383.143,131.768 378.809,125.102 374.5,118.5 Z"/></g>
<g><path style="opacity:0.876" fill="#ffffff" d="M 464.5,128.5 C 469.951,127.779 474.785,129.112 479,132.5C 481.582,137.457 480.749,141.623 476.5,145C 482.386,148.319 483.553,152.819 480,158.5C 478.581,159.46 477.081,160.293 475.5,161C 470.833,161.667 466.167,161.667 461.5,161C 457.243,159.147 455.243,156.147 455.5,152C 459.937,149.776 463.27,150.61 465.5,154.5C 470.666,156.326 472.666,154.66 471.5,149.5C 469.929,148.691 468.262,148.357 466.5,148.5C 466.5,146.5 466.5,144.5 466.5,142.5C 470.976,142.2 472.31,140.033 470.5,136C 468.833,135.333 467.167,135.333 465.5,136C 464.845,137.487 463.845,138.653 462.5,139.5C 454.517,139.041 453.517,136.207 459.5,131C 461.315,130.243 462.981,129.41 464.5,128.5 Z"/></g>
<g><path style="opacity:0.879" fill="#ffffff" d="M 524.5,128.5 C 530.605,127.651 536.105,128.984 541,132.5C 542.24,140.757 542.907,149.091 543,157.5C 543.5,158.5 544,159.5 544.5,160.5C 541.232,161.487 537.898,161.82 534.5,161.5C 534.649,160.448 534.483,159.448 534,158.5C 533.097,159.701 531.931,160.535 530.5,161C 518.35,164.174 513.184,159.674 515,147.5C 516.167,146.333 517.333,145.167 518.5,144C 523.587,142.685 528.587,141.185 533.5,139.5C 530.469,134.497 527.135,134.331 523.5,139C 520.808,139.43 518.141,139.263 515.5,138.5C 516.075,132.927 519.075,129.594 524.5,128.5 Z M 532.5,146.5 C 534.126,150.959 532.46,153.959 527.5,155.5C 523.819,154.729 522.819,152.729 524.5,149.5C 527.194,148.246 529.861,147.246 532.5,146.5 Z"/></g>
<g><path style="opacity:0.886" fill="#ffffff" d="M 558.5,128.5 C 564.605,127.651 570.105,128.984 575,132.5C 575.93,141.849 577.097,151.182 578.5,160.5C 574.83,161.906 571.33,161.573 568,159.5C 563.342,161.439 558.509,161.939 553.5,161C 547.772,156.24 547.105,150.907 551.5,145C 556.628,142.807 561.962,141.307 567.5,140.5C 567.471,137.344 565.804,135.678 562.5,135.5C 560.154,136.934 557.821,138.267 555.5,139.5C 553.488,139.16 551.488,138.827 549.5,138.5C 550.421,133.248 553.421,129.915 558.5,128.5 Z M 566.5,146.5 C 568.695,151.186 567.195,154.186 562,155.5C 560.488,154.743 559.154,153.743 558,152.5C 557.493,151.004 557.993,149.837 559.5,149C 562.004,148.302 564.337,147.469 566.5,146.5 Z"/></g>
<g><path style="opacity:0.885" fill="#ffffff" d="M 599.5,128.5 C 606.906,127.782 612.073,130.782 615,137.5C 616.141,144.084 615.474,150.417 613,156.5C 607.779,161.891 601.779,162.891 595,159.5C 594.501,163.821 594.334,168.154 594.5,172.5C 591.167,172.5 587.833,172.5 584.5,172.5C 584.5,158.167 584.5,143.833 584.5,129.5C 587.5,129.5 590.5,129.5 593.5,129.5C 593.351,130.552 593.517,131.552 594,132.5C 595.5,130.531 597.333,129.198 599.5,128.5 Z M 597.5,136.5 C 601.49,135.616 604.323,136.949 606,140.5C 606.667,143.5 606.667,146.5 606,149.5C 602.865,155.7 599.199,156.034 595,150.5C 592.965,145.31 593.798,140.643 597.5,136.5 Z"/></g>
<g><path style="opacity:0.891" fill="#ffffff" d="M 425.5,129.5 C 433.5,129.5 441.5,129.5 449.5,129.5C 449.5,140.167 449.5,150.833 449.5,161.5C 446.5,161.5 443.5,161.5 440.5,161.5C 440.5,157.167 440.5,152.833 440.5,148.5C 439.127,148.343 437.793,148.51 436.5,149C 433.249,152.419 430.582,156.253 428.5,160.5C 424.833,161.833 421.167,161.833 417.5,160.5C 420.132,156.069 423.132,151.902 426.5,148C 420.458,144.252 418.958,139.085 422,132.5C 423.145,131.364 424.312,130.364 425.5,129.5 Z M 432.5,135.5 C 435.167,135.5 437.833,135.5 440.5,135.5C 440.5,137.833 440.5,140.167 440.5,142.5C 437.482,142.665 434.482,142.498 431.5,142C 428.777,139.341 429.11,137.175 432.5,135.5 Z"/></g>
<g><path style="opacity:0.918" fill="#ffffff" d="M 488.5,129.5 C 495.833,129.5 503.167,129.5 510.5,129.5C 510.5,131.833 510.5,134.167 510.5,136.5C 506.167,136.5 501.833,136.5 497.5,136.5C 497.5,144.833 497.5,153.167 497.5,161.5C 494.5,161.5 491.5,161.5 488.5,161.5C 488.5,150.833 488.5,140.167 488.5,129.5 Z"/></g>
<g><path style="opacity:0.935" fill="#ffffff" d="M 622.5,129.5 C 629.5,129.5 636.5,129.5 643.5,129.5C 643.5,131.833 643.5,134.167 643.5,136.5C 639.5,136.5 635.5,136.5 631.5,136.5C 631.5,144.833 631.5,153.167 631.5,161.5C 628.5,161.5 625.5,161.5 622.5,161.5C 622.5,150.833 622.5,140.167 622.5,129.5 Z"/></g>
<g><path style="opacity:0.897" fill="#ffffff" d="M 647.5,129.5 C 650.898,129.18 654.232,129.513 657.5,130.5C 659.568,136.538 661.735,142.538 664,148.5C 666.912,142.77 669.246,136.77 671,130.5C 674.057,129.549 677.223,129.216 680.5,129.5C 676.973,140.246 673.14,150.912 669,161.5C 668.501,165.152 668.335,168.818 668.5,172.5C 665.5,172.5 662.5,172.5 659.5,172.5C 659.666,168.154 659.499,163.821 659,159.5C 655.258,149.437 651.425,139.437 647.5,129.5 Z"/></g>
<g><path style="opacity:0.897" fill="#ffffff" d="M 685.5,129.5 C 688.5,129.5 691.5,129.5 694.5,129.5C 694.334,134.844 694.501,140.177 695,145.5C 698.624,140.42 702.124,135.253 705.5,130C 708.482,129.502 711.482,129.335 714.5,129.5C 714.5,140.167 714.5,150.833 714.5,161.5C 711.5,161.5 708.5,161.5 705.5,161.5C 705.666,155.824 705.499,150.157 705,144.5C 701.697,149.969 698.197,155.302 694.5,160.5C 691.572,161.484 688.572,161.817 685.5,161.5C 685.5,150.833 685.5,140.167 685.5,129.5 Z"/></g>
<g><path style="opacity:0.939" fill="#1f65a1" d="M 189.5,132.5 C 229.634,130.608 265.301,142.108 296.5,167C 323.775,191.158 333.608,220.991 326,256.5C 317.428,278.213 301.594,291.047 278.5,295C 249.222,298.378 221.556,293.211 195.5,279.5C 199.172,276.671 203.005,274.004 207,271.5C 230.197,282.337 254.364,285.504 279.5,281C 306.173,271.501 317.34,252.668 313,224.5C 304.669,192.498 284.835,170.998 253.5,160C 230.198,151.087 206.198,148.421 181.5,152C 166.657,154.002 151.99,156.835 137.5,160.5C 136.659,153.535 136.326,146.535 136.5,139.5C 154.186,136.248 171.853,133.915 189.5,132.5 Z"/></g>
<g><path style="opacity:0.935" fill="#65b654" d="M 109.5,149.5 C 110.5,149.5 111.5,149.5 112.5,149.5C 112.666,154.511 112.499,159.511 112,164.5C 83.7107,180.465 67.8774,204.631 64.5,237C 64.5999,249.197 69.2665,259.197 78.5,267C 96.3448,280.46 116.345,285.126 138.5,281C 167.159,275.424 191.325,261.924 211,240.5C 226.764,216.291 237.598,189.957 243.5,161.5C 248.127,163.431 252.794,165.265 257.5,167C 259.478,167.481 260.811,168.647 261.5,170.5C 253.014,200.471 239.514,227.804 221,252.5C 183.18,292.998 137.68,305.165 84.5,289C 59.1639,276.838 47.9972,256.672 51,228.5C 53.7289,210.047 61.0622,193.713 73,179.5C 83.8575,167.689 96.0242,157.689 109.5,149.5 Z"/></g>
<g><path style="opacity:0.891" fill="#ffffff" d="M 434.5,192.5 C 438.188,192.781 441.855,193.281 445.5,194C 447.286,194.785 448.786,195.951 450,197.5C 451.275,206.065 451.942,214.732 452,223.5C 452.402,224.872 452.902,226.205 453.5,227.5C 449.122,229.189 445.288,228.522 442,225.5C 435.667,230.833 429.333,230.833 423,225.5C 419.788,220.867 419.788,216.2 423,211.5C 428.746,208.75 434.746,206.75 441,205.5C 441.502,202.285 440.002,200.619 436.5,200.5C 433.516,201.686 430.683,203.019 428,204.5C 425.611,204.518 423.444,203.851 421.5,202.5C 423.602,196.044 427.936,192.711 434.5,192.5 Z M 439.5,212.5 C 442.218,215.424 441.885,218.257 438.5,221C 433.731,222.685 431.231,221.185 431,216.5C 433.682,214.671 436.516,213.337 439.5,212.5 Z"/></g>
<g><path style="opacity:0.884" fill="#ffffff" d="M 503.5,192.5 C 516.847,193.526 523.18,200.86 522.5,214.5C 514.826,214.334 507.159,214.5 499.5,215C 503.186,222.88 507.686,223.38 513,216.5C 515.464,217.161 517.964,217.661 520.5,218C 521.535,219.507 521.368,221.007 520,222.5C 510.746,231.744 501.413,231.744 492,222.5C 487.782,212.861 488.949,204.028 495.5,196C 498.158,194.522 500.825,193.355 503.5,192.5 Z M 504.5,200.5 C 508.814,200.648 511.481,202.815 512.5,207C 508.167,207.667 503.833,207.667 499.5,207C 500.269,204.074 501.935,201.907 504.5,200.5 Z"/></g>
<g><path style="opacity:0.906" fill="#ffffff" d="M 586.5,192.5 C 592.074,192.38 597.241,193.713 602,196.5C 603.016,207.154 604.183,217.821 605.5,228.5C 602.167,228.5 598.833,228.5 595.5,228.5C 595.372,225.226 594.039,225.059 591.5,228C 579.134,231.615 573.301,227.115 574,214.5C 574.785,212.714 575.951,211.214 577.5,210C 583.328,208.475 588.994,206.641 594.5,204.5C 591.136,199.4 587.469,199.233 583.5,204C 573.282,205.004 571.949,202.004 579.5,195C 581.927,194.098 584.26,193.264 586.5,192.5 Z M 592.5,212.5 C 593.586,212.62 594.253,213.287 594.5,214.5C 593.989,220.09 590.989,222.257 585.5,221C 583.485,219.445 583.152,217.611 584.5,215.5C 587.194,214.246 589.861,213.246 592.5,212.5 Z"/></g>
<g><path style="opacity:0.907" fill="#ffffff" d="M 374.5,193.5 C 378.833,193.5 383.167,193.5 387.5,193.5C 389.297,201.059 391.797,208.392 395,215.5C 397.5,208.5 400,201.5 402.5,194.5C 406.445,193.509 410.445,193.176 414.5,193.5C 414.5,205.167 414.5,216.833 414.5,228.5C 411.833,228.5 409.167,228.5 406.5,228.5C 406.666,222.158 406.5,215.825 406,209.5C 403.526,215.757 401.359,222.09 399.5,228.5C 396.223,228.784 393.057,228.451 390,227.5C 388.197,221.758 386.197,216.091 384,210.5C 383.501,216.491 383.334,222.491 383.5,228.5C 380.5,228.5 377.5,228.5 374.5,228.5C 374.5,216.833 374.5,205.167 374.5,193.5 Z"/></g>
<g><path style="opacity:0.902" fill="#ffffff" d="M 455.5,193.5 C 465.833,193.5 476.167,193.5 486.5,193.5C 486.5,196.167 486.5,198.833 486.5,201.5C 482.833,201.5 479.167,201.5 475.5,201.5C 475.5,210.5 475.5,219.5 475.5,228.5C 472.167,228.5 468.833,228.5 465.5,228.5C 465.5,219.5 465.5,210.5 465.5,201.5C 462.167,201.5 458.833,201.5 455.5,201.5C 455.5,198.833 455.5,196.167 455.5,193.5 Z"/></g>
<g><path style="opacity:0.896" fill="#ffffff" d="M 527.5,193.5 C 531.555,193.176 535.555,193.509 539.5,194.5C 542.296,201.386 544.796,208.386 547,215.5C 549.863,208.578 552.53,201.578 555,194.5C 559.066,193.536 563.233,193.203 567.5,193.5C 567.5,205.167 567.5,216.833 567.5,228.5C 564.5,228.5 561.5,228.5 558.5,228.5C 558.666,222.491 558.499,216.491 558,210.5C 555.931,216.206 553.765,221.872 551.5,227.5C 548.5,228.833 545.5,228.833 542.5,227.5C 540.432,221.462 538.265,215.462 536,209.5C 535.5,215.825 535.334,222.158 535.5,228.5C 532.833,228.5 530.167,228.5 527.5,228.5C 527.5,216.833 527.5,205.167 527.5,193.5 Z"/></g>
<g><path style="opacity:0.919" fill="#ffffff" d="M 609.5,193.5 C 619.833,193.5 630.167,193.5 640.5,193.5C 640.5,196.167 640.5,198.833 640.5,201.5C 636.833,201.5 633.167,201.5 629.5,201.5C 629.5,210.5 629.5,219.5 629.5,228.5C 626.167,228.5 622.833,228.5 619.5,228.5C 619.5,219.5 619.5,210.5 619.5,201.5C 616.167,201.5 612.833,201.5 609.5,201.5C 609.5,198.833 609.5,196.167 609.5,193.5 Z"/></g>
<g><path style="opacity:0.901" fill="#ffffff" d="M 646.5,193.5 C 649.5,193.5 652.5,193.5 655.5,193.5C 655.334,199.842 655.5,206.175 656,212.5C 660.043,206.247 664.21,200.08 668.5,194C 671.817,193.502 675.15,193.335 678.5,193.5C 678.5,205.167 678.5,216.833 678.5,228.5C 675.167,228.5 671.833,228.5 668.5,228.5C 668.666,222.158 668.5,215.825 668,209.5C 663.957,215.753 659.79,221.92 655.5,228C 652.518,228.498 649.518,228.665 646.5,228.5C 646.5,216.833 646.5,205.167 646.5,193.5 Z"/></g>
<g><path style="opacity:0.877" fill="#ffffff" d="M 685.5,193.5 C 688.833,193.5 692.167,193.5 695.5,193.5C 695.334,198.179 695.501,202.845 696,207.5C 698.498,203.352 700.998,199.185 703.5,195C 706.688,193.684 710.022,193.184 713.5,193.5C 713.5,195.833 713.5,198.167 713.5,200.5C 711.278,200.178 709.444,200.845 708,202.5C 707.019,205.12 705.853,207.62 704.5,210C 708.761,215.689 712.094,221.856 714.5,228.5C 711.15,228.665 707.817,228.498 704.5,228C 702.196,223.217 699.53,218.717 696.5,214.5C 695.507,219.12 695.173,223.786 695.5,228.5C 692.167,228.5 688.833,228.5 685.5,228.5C 685.5,216.833 685.5,205.167 685.5,193.5 Z"/></g>
</svg>
